# xmcd
#
# Track frame offsets:
#	150
#	21875
#	41627
#	61950
#	83860
#	102207
#	121475
#	139567
#	157192
#	175897
#	190282
#	210422
#	229727
#	245772
#	263485
#	283892
#
# Disc length: 4031 seconds
#
# Revision: 1
# Processed by: cddbd v1.4PL0 Copyright (c) Steve Scherf et al.
# Submitted via: EasyCDDAExtractor 5.0.6
#
DISCID=e30fbd10
DTITLE=Various Artist - The Players Club Motion Picture Soundtrack
DYEAR=1998
DGENRE=Rap
TTITLE0=We Be Clubbin (Ice Cube)
TTITLE1=We Be Clubbin /remix (Ice Cube feat. DMX)
TTITLE2=Who Are You Lovin' (Ice Cube feat. Mr. Short Khop)
TTITLE3=Same Tempo (Changing Faces)
TTITLE4=Under Pressuer (Kurupt)
TTITLE5=You Know I'm A Ho (Master P and Ice Cube
TTITLE6=Splackavellie (Pressha)
TTITLE7=You Delinquent (Mack 10 and Scarface)
TTITLE8=From Marcy To Hollywood (Jay-Z)
TTITLE9=Don;t Play Me Wrong (Brownstone)
TTITLE10=Shake Whatcha Mama Gave Ya (Mia X)
TTITLE11=What A Woman Feels (Public Announcement)
TTITLE12=Don't Worry My Shorty (Rufus Blaq feat. Spinderella)
TTITLE13=My Loved One (Ice Cube feat. Mr. Short Khop)
TTITLE14=Get Mine (Mr. Dalvin)
TTITLE15=Dreamin' (Emmage)
EXTD=
EXTT0=
EXTT1=
EXTT2=
EXTT3=
EXTT4=
EXTT5=
EXTT6=
EXTT7=
EXTT8=
EXTT9=
EXTT10=
EXTT11=
EXTT12=
EXTT13=
EXTT14=
EXTT15=
PLAYORDER=
